<svg width="188" height="252" viewBox="0 0 188 252" fill="none" xmlns="http://www.w3.org/2000/svg">
<path fill-rule="evenodd" clip-rule="evenodd" d="M94 251.348C145.915 251.348 188 195.082 188 125.674C188 99.8631 182.18 75.8697 172.199 55.9113L112.523 185.452C111.546 187.574 110.374 189.602 109.023 191.508L104.158 198.378L104.087 198.464C100.811 203.092 97.099 207.468 92.7281 211.646C81.2847 220.75 67.2862 226.057 52.6835 226.828C47.5221 227.101 42.3761 226.802 37.3345 225.955C53.0902 241.893 72.7192 251.348 94 251.348ZM152.978 27.8093C136.851 10.4144 116.335 0 94 0C42.0852 0 0 56.2661 0 125.674C0 143.287 2.71012 160.054 7.60326 175.27C14.3158 175.636 21.0679 179.416 26.4541 183.873C27.5821 184.806 28.7714 185.672 30.0165 186.464C36.2198 190.41 43.4995 192.322 50.8412 191.935C58.1829 191.547 65.2208 188.879 70.9742 184.302C72.3068 183.242 73.5552 182.091 74.712 180.862C74.7839 180.69 74.8588 180.52 74.9367 180.35L93.6192 139.555C90.6321 139.798 87.6231 139.85 84.6104 139.708C72.2677 139.125 60.2971 135.297 49.9055 128.612C44.4391 125.095 39.5113 120.853 35.2462 116.021C28.8602 108.788 32.3793 98.0538 40.9617 93.6441C49.5441 89.2345 59.9745 93.1784 67.9292 98.6398C68.2199 98.8394 68.5139 99.0348 68.811 99.226C74.0355 102.587 80.0539 104.511 86.2593 104.805C92.4648 105.098 98.6378 103.75 104.156 100.896C104.47 100.734 104.781 100.567 105.089 100.395C107.625 98.9859 110.372 97.7341 113.193 96.8141L140.078 38.1098C142.594 32.6159 147.486 28.9622 152.978 27.8093Z" fill="url(#paint0_linear_3_35)"/>
<defs>
<linearGradient id="paint0_linear_3_35" x1="59.5528" y1="17.2236" x2="119.398" y2="251.348" gradientUnits="userSpaceOnUse">
<stop stop-color="#B0EAFF"/>
<stop offset="1" stop-color="#54D1FF"/>
</linearGradient>
</defs>
</svg>
